<?xml version="1.0" standalone="no"?><!DOCTYPE svg PUBLIC "-//W3C//DTD SVG 1.1//EN" "http://www.w3.org/Graphics/SVG/1.1/DTD/svg11.dtd"><svg t="1580704214556" class="icon" viewBox="0 0 1024 1024" version="1.1" xmlns="http://www.w3.org/2000/svg" p-id="2090" width="200" height="200" xmlns:xlink="http://www.w3.org/1999/xlink"><defs><style type="text/css"></style></defs><path d="M951.1 553.7L561.7 108.4h365.9c12.4 0 22.4-10 22.4-22.4 0-12.4-10-22.4-22.4-22.4H97.9c-12.4 0-22.4 10-22.4 22.4 0 12.4 10 22.4 22.4 22.4h364.3L73.5 553.7c-8.2 9.3-7.2 23.5 2.1 31.7s23.5 7.2 31.7-2.1l382.2-437.8v792.3c0 12.4 10 22.4 22.4 22.4 12.4 0 22.4-10 22.4-22.4V145.4l383 437.9c8.2 9.3 22.3 10.3 31.7 2.1 9.4-8.2 10.3-22.4 2.1-31.7z" p-id="2091" fill="#e89abe"></path></svg>