<?xml version="1.0" standalone="no"?><!DOCTYPE svg PUBLIC "-//W3C//DTD SVG 1.1//EN" "http://www.w3.org/Graphics/SVG/1.1/DTD/svg11.dtd"><svg class="icon" width="200px" height="200.00px" viewBox="0 0 1024 1024" version="1.1" xmlns="http://www.w3.org/2000/svg"><path fill="#f6ef37" d="M734.884788 917.693836c-12.551874 0-25.391297-3.421936-38.140669-10.08366L530.383184 820.305785c-7.79657-4.142343-29.245068-4.033873-36.915771 0l-166.378331 87.303368c-31.766494 16.549931-66.360384 11.813047-86.385463-11.921517-9.31004-10.984169-19.413142-30.578436-14.154371-60.975747l31.748074-184.800913c1.619894-9.580193-4.448312-28.237111-11.417027-35.008328L112.465956 483.884662c-21.447475-20.889773-29.53364-47.839565-21.645996-72.15946 7.977695-24.329105 30.43415-41.382503 60.07626-45.723367l185.988972-26.948769c9.616008-1.414209 25.589818-12.921287 29.948079-21.700231l83.143629-168.151721c13.236466-26.850531 36.503379-42.894949 62.093196-42.89495 25.697265 0 48.855708 16.045441 62.199621 42.89495l83.144652 168.151721c4.339842 8.679683 20.2236 20.286022 29.839609 21.700231l185.791473 26.948769c29.642111 4.339842 52.080146 21.394263 60.075237 45.723367 7.995091 24.419156-0.107447 51.378158-21.645996 72.266907L776.952906 614.795201c-6.969739 6.771217-13.037944 25.428136-11.417027 35.026748l31.748074 184.818309c5.258771 30.361495-4.844332 49.954739-14.154371 60.939931-12.029988 14.334473-29.137621 22.113647-48.244794 22.113647z" /></svg>