<?xml version="1.0" standalone="no"?><!DOCTYPE svg PUBLIC "-//W3C//DTD SVG 1.1//EN" "http://www.w3.org/Graphics/SVG/1.1/DTD/svg11.dtd"><svg t="1581224897642" class="icon" viewBox="0 0 1024 1024" version="1.1" xmlns="http://www.w3.org/2000/svg" p-id="3571" xmlns:xlink="http://www.w3.org/1999/xlink" width="200" height="200"><defs><style type="text/css"></style></defs><path d="M503.875 98.25C270.887 98.25 82 287.079 82 520.125S270.887 942 503.875 942c233.042 0 421.875-188.833 421.875-421.875S736.917 98.25 503.875 98.25z m0 787.5c-201.6 0-365.625-164.025-365.625-365.625S302.275 154.5 503.875 154.5 869.5 318.525 869.5 520.125 705.475 885.75 503.875 885.75z" p-id="3572" fill="#ff8198"></path><path d="M709.804 387.712l-261.45 261.45-149.625-149.625a28.143 28.143 0 0 0-39.771 0 28.143 28.143 0 0 0 0 39.771l169.479 169.538c5.513 5.512 12.713 8.212 19.913 8.212s14.4-2.758 19.912-8.212l281.304-281.363a28.152 28.152 0 0 0 0-39.77 28.139 28.139 0 0 0-39.762 0z" p-id="3573" fill="#ff8198"></path></svg>