<?xml version="1.0" standalone="no"?><!DOCTYPE svg PUBLIC "-//W3C//DTD SVG 1.1//EN" "http://www.w3.org/Graphics/SVG/1.1/DTD/svg11.dtd"><svg class="icon" width="200px" height="200.00px" viewBox="0 0 1024 1024" version="1.1" xmlns="http://www.w3.org/2000/svg"><path fill="#d4237a" d="M373.845477 766.654864c-52.878324 0-95.745644 42.868343-95.745644 95.751784 0 52.876278 42.866297 95.745644 95.745644 95.745644 52.881394 0 95.747691-42.868343 95.747691-95.745644C469.592145 809.523207 426.725848 766.654864 373.845477 766.654864zM373.845477 915.598104c-29.377074 0-53.193503-23.816428-53.193503-53.197596 0-29.372981 23.816428-53.18941 53.193503-53.18941 29.377074 0 53.193503 23.816428 53.193503 53.18941C427.03898 891.781676 403.222551 915.598104 373.845477 915.598104zM215.001749 192.166671l-22.011316-127.667681L65.324798 64.49899l0 42.558281 88.781022 0 102.716406 595.769892 595.765799 0 0-42.554188L295.709909 660.272975l-11.512195-66.768683 568.389288-60.896952L958.975031 234.724952l0-42.558281L215.001749 192.166671zM831.311443 490.052129l-554.331108 61.58973-54.641481-316.916906 687.532829 0L831.311443 490.052129zM735.561705 766.654864c-52.878324 0-95.747691 42.868343-95.747691 95.751784 0 52.876278 42.868343 95.745644 95.747691 95.745644s95.747691-42.868343 95.747691-95.745644C831.309396 809.523207 788.44003 766.654864 735.561705 766.654864zM735.561705 915.598104c-29.379121 0-53.193503-23.816428-53.193503-53.197596 0-29.377074 23.814382-53.191456 53.193503-53.191456 29.377074 0 53.193503 23.814382 53.193503 53.191456C788.755208 891.781676 764.93878 915.598104 735.561705 915.598104z" /></svg>