<?xml version="1.0" standalone="no"?><!DOCTYPE svg PUBLIC "-//W3C//DTD SVG 1.1//EN" "http://www.w3.org/Graphics/SVG/1.1/DTD/svg11.dtd"><svg t="1581059009494" class="icon" viewBox="0 0 1024 1024" version="1.1" xmlns="http://www.w3.org/2000/svg" p-id="6413" xmlns:xlink="http://www.w3.org/1999/xlink" width="200" height="200"><defs><style type="text/css"></style></defs><path d="M679.408 882.08a63.312 63.312 0 0 1-46.656 54.064l-81.728 21.808a63.488 63.488 0 0 1-77.232-44.832 63.2 63.2 0 0 1 44.384-77.312l81.712-21.808a63.584 63.584 0 0 1 60.16 15.248 304 304 0 0 0 147.76-125.92h-20.832c-62.304 0-112.8-50.336-112.8-112.416v-112.416c0-62.08 50.496-112.4 112.8-112.4h28.208c4.064 0 8.096 0.208 12.064 0.64C784.128 240.112 659.504 148.288 512 148.288S239.872 240.128 196.752 366.72c3.968-0.416 8-0.64 12.064-0.64h28.208c62.304 0 112.8 50.336 112.8 112.416v112.416c0 62.08-50.496 112.4-112.8 112.4H208.8C146.512 703.312 96 652.992 96 590.912v-112.416c0-2.928 0.112-5.84 0.32-8.72a42.688 42.688 0 0 1-0.32-5.328C96 242.912 282.608 64 512 64s416 178.912 416 400.448c0 1.808-0.112 3.584-0.32 5.328 0.208 2.88 0.32 5.792 0.32 8.72v112.416a112.128 112.128 0 0 1-46.88 91.232A360.128 360.128 0 0 1 679.392 882.08z" fill="#FFBD27" p-id="6414"></path></svg>