<?xml version="1.0" standalone="no"?><!DOCTYPE svg PUBLIC "-//W3C//DTD SVG 1.1//EN" "http://www.w3.org/Graphics/SVG/1.1/DTD/svg11.dtd"><svg class="icon" width="64px" height="64.00px" viewBox="0 0 1024 1024" version="1.1" xmlns="http://www.w3.org/2000/svg"><path fill="#ff8198" d="M805.502126 183.606715 219.370755 183.606715c-41.919738 0-75.892481 33.972742-75.892481 75.891458l0 501.798661c0 41.921785 33.971719 75.892481 75.892481 75.892481l586.131371 0c41.920762 0 75.891458-33.970696 75.891458-75.892481l0-84.291778c-0.063445-10.994402-8.975419-19.891026-19.971867-19.891026-10.993378 0-19.909445 8.895601-19.97289 19.891026l0 0.040932c0 0.040932 0 0.040932 0 0.084934 0 0 0 0 0 0.039909l0 80.135108c0 22.067598-17.889439 39.940664-39.939641 39.940664L440.621834 797.246603c-0.021489 0-0.021489 0-0.042979 0L223.364719 797.246603c-22.051225 0-39.943734-17.873066-39.943734-39.940664L183.420985 445.541379l228.66391 0.329505 0.020466 172.412768c0 11.612479 9.429767 21.084201 21.083178 21.084201 3.635807 0 6.888897-1.152243 9.872858-2.799766l0.196475 0.370437 79.731926-44.308135 77.094866 46.490847c0.473791 0.329505 0.74292 0.823761 1.25662 1.112334 10.028401 5.970992 22.936385 2.63399 28.887934-7.370875 2.243087-3.829212 2.778276-7.989975 2.508123-12.106736 0.104377-0.864694 0.497327-1.605567 0.497327-2.471284l0-0.040932 0.019443 0-0.019443-172.70134 208.216205 0.329505 0 114.517173c0 0.040932 0 0.081864 0 0.081864 0 11.035334 8.936533 19.971867 19.97289 19.971867 11.036357 0 19.971867-8.93551 19.971867-19.971867 0 0 0-0.040932 0-0.081864L881.39563 259.498172C881.393583 217.578434 847.422887 183.606715 805.502126 183.606715zM183.420985 403.375024 183.420985 263.492136c0-22.072715 17.892509-39.943734 39.943734-39.943734l188.679243 0 0.030699 180.15408L183.420985 403.375024zM533.460266 549.680181l-0.229221 0.37146c-6.474458-3.78828-14.649652-4.28356-21.49557-0.12382-0.760317 0.494257-1.204431 1.194198-1.895163 1.77032l-55.568596 30.884404-0.062422-359.034143L591.02431 223.548402l0.060375 360.88735L533.460266 549.680181zM841.449849 403.703505l-208.236672-0.328481-0.022513-179.825598 168.319543 0c22.050202 0 39.939641 17.871019 39.939641 39.943734L841.449849 403.703505z" /></svg>