<?xml version="1.0" standalone="no"?><!DOCTYPE svg PUBLIC "-//W3C//DTD SVG 1.1//EN" "http://www.w3.org/Graphics/SVG/1.1/DTD/svg11.dtd"><svg class="icon" width="64px" height="64.00px" viewBox="0 0 1024 1024" version="1.1" xmlns="http://www.w3.org/2000/svg"><path fill="#ff8198" d="M957.2 155.8H66.8C30 155.8 0 185.8 0 222.6v489.7c0 36.8 30 66.8 66.8 66.8h304.9l128 85.3c3.7 2.5 8 3.7 12.3 3.7 4.3 0 8.6-1.2 12.3-3.7l128-85.3h304.9c36.8 0 66.8-30 66.8-66.8V222.6c0-36.8-30-66.8-66.8-66.8z m22.3 556.5c0 12.3-10 22.3-22.3 22.3H645.6c-4.4 0-8.7 1.3-12.3 3.7L512 819.2l-121.2-80.8c-3.7-2.4-8-3.7-12.3-3.7H66.8c-12.3 0-22.3-10-22.3-22.3V222.6c0-12.3 10-22.3 22.3-22.3h890.4c12.3 0 22.3 10 22.3 22.3v489.7z"  /><path fill="#ff8198" d="M512 400.7c-36.8 0-66.8 30-66.8 66.8s30 66.8 66.8 66.8 66.8-30 66.8-66.8-30-66.8-66.8-66.8z m0 89c-12.3 0-22.3-10-22.3-22.3s10-22.3 22.3-22.3 22.3 10 22.3 22.3c0 12.4-10 22.3-22.3 22.3zM244.9 400.7c-36.8 0-66.8 30-66.8 66.8s30 66.8 66.8 66.8 66.8-30 66.8-66.8-30-66.8-66.8-66.8z m0 89c-12.3 0-22.3-10-22.3-22.3s10-22.3 22.3-22.3 22.3 10 22.3 22.3c-0.1 12.4-10.1 22.3-22.3 22.3zM779.1 400.7c-36.8 0-66.8 30-66.8 66.8s30 66.8 66.8 66.8 66.8-30 66.8-66.8-29.9-66.8-66.8-66.8z m0 89c-12.3 0-22.3-10-22.3-22.3s10-22.3 22.3-22.3 22.3 10 22.3 22.3c0 12.4-10 22.3-22.3 22.3z"  /></svg>