<?xml version="1.0" standalone="no"?><!DOCTYPE svg PUBLIC "-//W3C//DTD SVG 1.1//EN" "http://www.w3.org/Graphics/SVG/1.1/DTD/svg11.dtd"><svg class="icon" width="64px" height="63.63px" viewBox="0 0 1030 1024" version="1.1" xmlns="http://www.w3.org/2000/svg"><path fill="#ff8198" d="M908.8 294.4c44.8 0 83.2 38.4 83.2 83.2V768c0 44.8-38.4 83.2-83.2 83.2H128c-44.8 0-83.2-38.4-83.2-83.2V294.4h864m0-38.4H6.4v512c0 70.4 57.6 128 121.6 128H902.4c70.4 0 121.6-57.6 121.6-121.6V377.6c6.4-64-51.2-121.6-115.2-121.6z"  /><path fill="#ff8198" d="M19.2 275.2c-6.4 0-19.2-6.4-19.2-19.2v-38.4c0-57.6 57.6-108.8 121.6-108.8h416c70.4 0 121.6 51.2 121.6 108.8V256c0 12.8-6.4 19.2-19.2 19.2s-12.8-6.4-12.8-19.2v-38.4c0-38.4-38.4-70.4-83.2-70.4H128c-44.8 0-83.2 32-83.2 70.4V256c-6.4 12.8-12.8 19.2-25.6 19.2zM998.4 723.2h-268.8c-76.8 0-134.4-64-134.4-147.2s64-147.2 134.4-147.2h268.8c12.8 0 19.2 6.4 19.2 19.2s-6.4 19.2-19.2 19.2h-268.8c-57.6 0-96 51.2-96 108.8s44.8 108.8 96 108.8h268.8c12.8 0 19.2 6.4 19.2 19.2s-6.4 19.2-19.2 19.2z"  /><path fill="#ff8198" d="M774.4 595.2h-70.4c-12.8 0-19.2-6.4-19.2-19.2s6.4-19.2 19.2-19.2H774.4c12.8 0 19.2 6.4 19.2 19.2s-6.4 19.2-19.2 19.2z"  /></svg>