<?xml version="1.0" standalone="no"?><!DOCTYPE svg PUBLIC "-//W3C//DTD SVG 1.1//EN" "http://www.w3.org/Graphics/SVG/1.1/DTD/svg11.dtd"><svg class="icon" width="64px" height="60.35px" viewBox="0 0 1086 1024" version="1.1" xmlns="http://www.w3.org/2000/svg"><path fill="#ff8198" d="M573.282424 1023.999592A510.164797 510.164797 0 0 1 210.433254 873.102648a21.612631 21.612631 0 0 1 30.651134-30.478243 468.300435 468.300435 0 1 0-129.668378-409.023462 21.611396 21.611396 0 1 1-42.617673-7.212032 511.980155 511.980155 0 1 1 504.484087 597.610681z"  /><path fill="#ff8198" d="M565.613466 490.790872L387.053934 275.03504a21.626216 21.626216 0 0 1 33.343297-27.551443l145.216235 175.509237 150.477065-181.832114a21.626216 21.626216 0 0 1 33.343297 27.551443z"  /><path fill="#ff8198" d="M712.719153 482.20806H413.283995a21.611396 21.611396 0 0 1 0-43.222792h299.435158a21.611396 21.611396 0 0 1 0 43.222792zM709.224282 610.974935H409.801473a21.611396 21.611396 0 0 1 0-43.222793H709.224282a21.611396 21.611396 0 1 1 0 43.222793z"  /><path fill="#ff8198" d="M559.512877 817.444041a21.611396 21.611396 0 0 1-21.611396-21.611397V439.652134a21.611396 21.611396 0 0 1 43.222793 0v356.229908a21.611396 21.611396 0 0 1-21.611397 21.561999z"  /><path fill="#ff8198" d="M559.512877 817.444041a21.611396 21.611396 0 0 1-21.611396-21.611397V439.652134a21.611396 21.611396 0 0 1 43.222793 0v356.229908a21.611396 21.611396 0 0 1-21.611397 21.561999zM0 413.496169l57.424567 227.833515 137.078-196.354972z"  /></svg>